<svg xmlns="http://www.w3.org/2000/svg" width="32.361" height="35.288" viewBox="0 0 32.361 35.288">
  <g id="_2290849_document_done_excellent_list_note_icon" data-name="2290849_document_done_excellent_list_note_icon" transform="translate(0.5 0.5)">
    <path id="Path_81" data-name="Path 81" d="M384.612,446.73a2.164,2.164,0,0,1-2.153,2.154" transform="translate(-356.789 -414.596)" fill="none" stroke="#130b7a" stroke-linecap="round" stroke-linejoin="round" stroke-miterlimit="2.613" stroke-width="1"/>
    <line id="Line_20" data-name="Line 20" x1="23.516" transform="translate(2.154 34.288)" fill="none" stroke="#130b7a" stroke-linecap="round" stroke-linejoin="round" stroke-miterlimit="2.613" stroke-width="1"/>
    <path id="Path_82" data-name="Path 82" d="M47.714,448.885a2.163,2.163,0,0,1-2.154-2.154" transform="translate(-45.56 -414.597)" fill="none" stroke="#130b7a" stroke-linecap="round" stroke-linejoin="round" stroke-miterlimit="2.613" stroke-width="1"/>
    <path id="Path_83" data-name="Path 83" d="M45.561,57.131V33.623L54.885,25H71.231" transform="translate(-45.561 -24.997)" fill="none" stroke="#130b7a" stroke-linecap="round" stroke-linejoin="round" stroke-miterlimit="2.613" stroke-width="1"/>
    <path id="Path_84" data-name="Path 84" d="M382.459,25a2.162,2.162,0,0,1,2.153,2.153" transform="translate(-356.789 -24.997)" fill="none" stroke="#130b7a" stroke-linecap="round" stroke-linejoin="round" stroke-miterlimit="2.613" stroke-width="1"/>
    <line id="Line_21" data-name="Line 21" y2="14.257" transform="translate(27.823 2.153)" fill="none" stroke="#130b7a" stroke-linecap="round" stroke-linejoin="round" stroke-miterlimit="2.613" stroke-width="1"/>
    <line id="Line_22" data-name="Line 22" y2="7.953" transform="translate(9.752)" fill="none" stroke="#130b7a" stroke-linecap="round" stroke-linejoin="round" stroke-miterlimit="2.613" stroke-width="1"/>
    <path id="Path_85" data-name="Path 85" d="M159.586,129.369a1.159,1.159,0,0,1-1.152,1.153" transform="translate(-149.834 -121.416)" fill="none" stroke="#130b7a" stroke-linecap="round" stroke-linejoin="round" stroke-miterlimit="2.613" stroke-width="1"/>
    <line id="Line_23" data-name="Line 23" x1="8.6" transform="translate(0 9.105)" fill="none" stroke="#130b7a" stroke-linecap="round" stroke-linejoin="round" stroke-miterlimit="2.613" stroke-width="1"/>
    <line id="Line_24" data-name="Line 24" x2="8.27" transform="translate(15.246 3.656)" fill="none" stroke="#130b7a" stroke-linecap="round" stroke-linejoin="round" stroke-miterlimit="2.613" stroke-width="1"/>
    <path id="Path_86" data-name="Path 86" d="M354.186,72.974a.541.541,0,0,1,.513.559" transform="translate(-330.67 -69.318)" fill="none" stroke="#130b7a" stroke-linecap="round" stroke-linejoin="round" stroke-miterlimit="2.613" stroke-width="1"/>
    <line id="Line_25" data-name="Line 25" y2="4.724" transform="translate(24.028 4.215)" fill="none" stroke="#130b7a" stroke-linecap="round" stroke-linejoin="round" stroke-miterlimit="2.613" stroke-width="1"/>
    <path id="Path_87" data-name="Path 87" d="M354.7,142.306a.539.539,0,0,1-.512.559" transform="translate(-330.669 -133.368)" fill="none" stroke="#130b7a" stroke-linecap="round" stroke-linejoin="round" stroke-miterlimit="2.613" stroke-width="1"/>
    <line id="Line_26" data-name="Line 26" x1="8.27" transform="translate(15.246 9.497)" fill="none" stroke="#130b7a" stroke-linecap="round" stroke-linejoin="round" stroke-miterlimit="2.613" stroke-width="1"/>
    <path id="Path_88" data-name="Path 88" d="M239.427,142.866a.538.538,0,0,1-.513-.559" transform="translate(-224.181 -133.368)" fill="none" stroke="#130b7a" stroke-linecap="round" stroke-linejoin="round" stroke-miterlimit="2.613" stroke-width="1"/>
    <line id="Line_27" data-name="Line 27" y1="4.724" transform="translate(14.733 4.215)" fill="none" stroke="#130b7a" stroke-linecap="round" stroke-linejoin="round" stroke-miterlimit="2.613" stroke-width="1"/>
    <path id="Path_89" data-name="Path 89" d="M238.914,73.534a.54.54,0,0,1,.513-.559" transform="translate(-224.181 -69.319)" fill="none" stroke="#130b7a" stroke-linecap="round" stroke-linejoin="round" stroke-miterlimit="2.613" stroke-width="1"/>
    <line id="Line_28" data-name="Line 28" x2="20.674" transform="translate(3.402 14.948)" fill="none" stroke="#130b7a" stroke-linecap="round" stroke-linejoin="round" stroke-miterlimit="2.613" stroke-width="1"/>
    <line id="Line_29" data-name="Line 29" x2="14.217" transform="translate(3.402 22.115)" fill="none" stroke="#130b7a" stroke-linecap="round" stroke-linejoin="round" stroke-miterlimit="2.613" stroke-width="1"/>
    <line id="Line_30" data-name="Line 30" x2="15.234" transform="translate(3.402 29.284)" fill="none" stroke="#130b7a" stroke-linecap="round" stroke-linejoin="round" stroke-miterlimit="2.613" stroke-width="1"/>
    <g id="Group_234" data-name="Group 234" transform="translate(21.131 19.119)">
      <path id="Path_90" data-name="Path 90" d="M332.912,280.934a5.007,5.007,0,1,1-2.49-4.333" transform="translate(-322.888 -275.923)" fill="none" stroke="#130b7a" stroke-linecap="round" stroke-linejoin="round" stroke-miterlimit="2.613" stroke-width="1"/>
      <g id="Group_233" data-name="Group 233" transform="translate(2.813 1.752)">
        <line id="Line_31" data-name="Line 31" x2="2.546" y2="2.334" transform="translate(0 2.761)" fill="none" stroke="#130b7a" stroke-linecap="round" stroke-linejoin="round" stroke-miterlimit="2.613" stroke-width="1"/>
        <line id="Line_32" data-name="Line 32" x1="4.665" y2="5.095" transform="translate(2.546)" fill="none" stroke="#130b7a" stroke-linecap="round" stroke-linejoin="round" stroke-miterlimit="2.613" stroke-width="1"/>
      </g>
    </g>
  </g>
</svg>
