<?xml version="1.0" ?><svg enable-background="new 0 0 64 64" id="Layer_1" version="1.1" viewBox="0 0 64 64" xml:space="preserve" xmlns="http://www.w3.org/2000/svg" xmlns:xlink="http://www.w3.org/1999/xlink"><g><path d="M61,0.9998779H3c-1.1044922,0-2,0.8955078-2,2v29c0,1.1044922,0.8955078,2,2,2h3c1.1044922,0,2-0.8955078,2-2   s-0.8955078-2-2-2H5v-25h54v25h-1c-1.1044922,0-2,0.8955078-2,2s0.8955078,2,2,2h3c1.1044922,0,2-0.8955078,2-2v-29   C63,1.8953857,62.1044922,0.9998779,61,0.9998779z"/><path d="M51,10.9998779H13c-1.1044922,0-2,0.8955078-2,2v48c0,0.7128906,0.3793945,1.3720703,0.9960938,1.7299805   c0.6176758,0.3574219,1.3774414,0.3603516,1.9960938,0.0063477l5.9267578-3.3867188l4.9716797,3.3144531   c0.671875,0.4482422,1.546875,0.4482422,2.21875,0L32,59.4036865l4.890625,3.2602539   c0.671875,0.4482422,1.546875,0.4482422,2.21875,0l4.9716797-3.3144531l5.9267578,3.3867188   C50.3154297,62.9119873,50.6577148,62.9998779,51,62.9998779c0.3466797,0,0.6933594-0.090332,1.0039063-0.2700195   C52.6206055,62.3719482,53,61.7127686,53,60.9998779v-48C53,11.8953857,52.1044922,10.9998779,51,10.9998779z M49,57.5535889   l-4.0078125-2.2900391c-0.6572266-0.375-1.4707031-0.3466797-2.1015625,0.0722656L38,58.5960693l-4.890625-3.2602539   C32.7734375,55.1116943,32.3867188,54.9998779,32,54.9998779s-0.7734375,0.1118164-1.109375,0.3359375L26,58.5960693   l-4.890625-3.2602539c-0.6293945-0.4208984-1.4438477-0.4472656-2.1015625-0.0722656L15,57.5535889V14.9998779h34V57.5535889z"/><path d="M22,23.9998779h9c1.1044922,0,2-0.8955078,2-2s-0.8955078-2-2-2h-9c-1.1044922,0-2,0.8955078-2,2   S20.8955078,23.9998779,22,23.9998779z"/><path d="M22,39.9998779h20c1.1044922,0,2-0.8955078,2-2s-0.8955078-2-2-2H22c-1.1044922,0-2,0.8955078-2,2   S20.8955078,39.9998779,22,39.9998779z"/><path d="M22,31.9998779h20c1.1044922,0,2-0.8955078,2-2s-0.8955078-2-2-2H22c-1.1044922,0-2,0.8955078-2,2   S20.8955078,31.9998779,22,31.9998779z"/><path d="M22,47.9998779h9c1.1044922,0,2-0.8955078,2-2s-0.8955078-2-2-2h-9c-1.1044922,0-2,0.8955078-2,2   S20.8955078,47.9998779,22,47.9998779z"/></g></svg>