<svg xmlns="http://www.w3.org/2000/svg" width="49.613" height="49.613" viewBox="0 0 49.613 49.613">
  <path id="_7738890_monitor_computer_laptop_technology_device_icon" data-name="7738890_monitor_computer_laptop_technology_device_icon" d="M47.413,1H4.2A3.2,3.2,0,0,0,1,4.2V33.009a3.2,3.2,0,0,0,3.2,3.2H17.92l-2.037,5.6H10.6a5.608,5.608,0,0,0-5.6,5.6v1.6a1.6,1.6,0,0,0,1.6,1.6h38.41a1.6,1.6,0,0,0,1.6-1.6v-1.6a5.608,5.608,0,0,0-5.6-5.6H35.73l-2.037-5.6H37.01a1.6,1.6,0,1,0,0-3.2H4.2V4.2H47.413V25.007H8.2a1.6,1.6,0,1,0,0,3.2H47.413v4.8h-4.8a1.6,1.6,0,1,0,0,3.2h4.8a3.2,3.2,0,0,0,3.2-3.2V4.2A3.2,3.2,0,0,0,47.413,1Zm-4,46.413H8.2a2.4,2.4,0,0,1,2.4-2.4H41.011A2.4,2.4,0,0,1,43.412,47.413ZM30.287,36.21l2.037,5.6H19.289l2.037-5.6Z" transform="translate(-1 -1)" fill="#ffbd5e"/>
</svg>
