<svg xmlns="http://www.w3.org/2000/svg" width="20.032" height="20" viewBox="0 0 20.032 20">
  <g id="icons" transform="translate(-1.984 -2)">
    <g id="user">
      <ellipse id="Ellipse_1" data-name="Ellipse 1" cx="5" cy="6" rx="5" ry="6" transform="translate(7 2)" fill="#ffbd5e"/>
      <path id="Path_4" data-name="Path 4" d="M21.8,19.1A9.114,9.114,0,0,0,17,14.9a2.239,2.239,0,0,0-1.8.1,6.139,6.139,0,0,1-6.4,0A2.25,2.25,0,0,0,7,15a9.114,9.114,0,0,0-4.8,4.2A1.974,1.974,0,0,0,4.1,22H19.9A2.025,2.025,0,0,0,21.8,19.1Z" fill="#ffbd5e"/>
    </g>
  </g>
</svg>
