<svg id="_8678666_remote_control_fill_icon_1_" data-name="8678666_remote_control_fill_icon(1)" xmlns="http://www.w3.org/2000/svg" width="58.693" height="58.693" viewBox="0 0 58.693 58.693">
  <path id="Path_181" data-name="Path 181" d="M0,0H58.693V58.693H0Z" fill="none"/>
  <path id="Path_182" data-name="Path 182" d="M37.161,26.456A2.446,2.446,0,0,1,39.607,28.9v22.01H10.26V28.9a2.446,2.446,0,0,1,2.446-2.446ZM20.042,31.347H15.151v4.891h4.891Zm4.891-19.564a14.673,14.673,0,0,1,13.128,8.109L33.684,22.08a9.782,9.782,0,0,0-17.5,0l-4.375-2.189a14.673,14.673,0,0,1,13.128-8.109Zm0-9.782a24.458,24.458,0,0,1,21.88,13.521l-4.377,2.184a19.571,19.571,0,0,0-35.008,0L3.053,15.517A24.456,24.456,0,0,1,24.933,2Z" transform="translate(4.413 2.891)" fill="#ffbd5e"/>
</svg>
