<svg xmlns="http://www.w3.org/2000/svg" width="58.185" height="57.563" viewBox="0 0 58.185 57.563">
  <g id="Group_981" data-name="Group 981" transform="translate(2.121 1.5)">
    <line id="Line_61" data-name="Line 61" y2="4" transform="translate(27.563 15.563)" fill="none" stroke="#6418c2" stroke-linecap="round" stroke-linejoin="round" stroke-miterlimit="10" stroke-width="3"/>
    <line id="Line_62" data-name="Line 62" y2="3" transform="translate(27.563 35.563)" fill="none" stroke="#6418c2" stroke-linecap="round" stroke-linejoin="round" stroke-miterlimit="10" stroke-width="3"/>
    <path id="Path_176" data-name="Path 176" d="M14.949,27.59h5.846a3.9,3.9,0,1,0,0-7.795H16.9A3.9,3.9,0,0,1,16.9,12h5.846" transform="translate(8.436 7.487)" fill="none" stroke="#6418c2" stroke-linecap="round" stroke-linejoin="round" stroke-miterlimit="10" stroke-width="3"/>
    <path id="Path_177" data-name="Path 177" d="M25.487,6A19.487,19.487,0,1,1,6,25.487V19.641" transform="translate(1.795 1.795)" fill="none" stroke="#6418c2" stroke-linecap="round" stroke-linejoin="round" stroke-miterlimit="10" stroke-width="3"/>
    <path id="Path_178" data-name="Path 178" d="M17.59,20.795,9.795,13,2,20.795" transform="translate(-2 8.436)" fill="none" stroke="#6418c2" stroke-linecap="round" stroke-linejoin="round" stroke-miterlimit="10" stroke-width="3"/>
    <path id="Path_179" data-name="Path 179" d="M16,2a27.282,27.282,0,0,1,0,54.563" transform="translate(11.282 -2)" fill="none" stroke="#6418c2" stroke-linecap="round" stroke-linejoin="round" stroke-miterlimit="10" stroke-width="3"/>
  </g>
</svg>
