<svg xmlns="http://www.w3.org/2000/svg" width="56" height="56" viewBox="0 0 56 56">
  <g id="_9044443_flash_filled_icon" data-name="9044443_flash_filled_icon" transform="translate(-0.25)">
    <path id="Path_180" data-name="Path 180" d="M15.131,51.123a1.759,1.759,0,0,1-1.056-1.883l3.2-20.849H8.78A1.759,1.759,0,0,1,7.02,26.228L12.3,3.355A1.759,1.759,0,0,1,14.058,2H31.652a1.762,1.762,0,0,1,1.724,2.146L30.333,17.835H38.69a1.706,1.706,0,0,1,1.39,2.745L17.207,50.49a1.759,1.759,0,0,1-1.39.774,1.918,1.918,0,0,1-.686-.141Z" transform="translate(5.244 1.519)" fill="#6418c2"/>
    <rect id="_Transparent_Rectangle_" data-name="&lt;Transparent Rectangle&gt;" width="56" height="56" transform="translate(56.25 56) rotate(180)" fill="none"/>
  </g>
</svg>
