<svg xmlns="http://www.w3.org/2000/svg" width="59" height="59" viewBox="0 0 59 59">
  <g id="_172625_male_user_icon_2_" data-name="172625_male_user_icon(2)" transform="translate(0 0.307)">
    <rect id="Rectangle_301" data-name="Rectangle 301" width="59" height="59" transform="translate(0 -0.307)" fill="none"/>
    <path id="Path_175" data-name="Path 175" d="M35.539,37.943a49.29,49.29,0,0,1-.107-5.02c.871-.457,2.43-3.369,2.694-5.829.684-.056,1.764-.724,2.08-3.36a2.461,2.461,0,0,0-.919-2.462c1.114-3.35,3.427-13.712-4.279-14.783-.793-1.393-2.824-2.1-5.463-2.1-10.558.194-11.832,7.973-9.517,16.881a2.466,2.466,0,0,0-.919,2.462c.317,2.637,1.4,3.3,2.08,3.36.262,2.459,1.884,5.372,2.757,5.829a49.3,49.3,0,0,1-.109,5.02C21.747,43.56,7.651,41.984,7,52.816H52.314C51.664,41.984,37.629,43.56,35.539,37.943Z" transform="translate(1.347 0.845)" fill="#ffbd5e"/>
  </g>
</svg>
