<svg xmlns="http://www.w3.org/2000/svg" width="38.73" height="38.73" viewBox="0 0 38.73 38.73">
  <path id="_171276_tablet_ipad_device_slate_screen_icon" data-name="171276_tablet_ipad_device_slate_screen_icon" d="M37.964,2H4.766A2.775,2.775,0,0,0,2,4.766v33.2A2.775,2.775,0,0,0,4.766,40.73h33.2a2.775,2.775,0,0,0,2.766-2.766V4.766A2.775,2.775,0,0,0,37.964,2ZM35.2,35.2H7.533V7.533H35.2ZM21.365,26.9a2.766,2.766,0,1,0,2.766,2.766A2.767,2.767,0,0,0,21.365,26.9ZM32.431,10.3H10.3V24.132H32.431Z" transform="translate(-2 -2)" fill="#6418c2"/>
</svg>
