<svg xmlns="http://www.w3.org/2000/svg" width="49.453" height="59.959" viewBox="0 0 49.453 59.959">
  <g id="Money_asset_income_management" transform="translate(-7.505 -1.246)">
    <path id="Path_1" data-name="Path 1" d="M32.444,1.246a16.071,16.071,0,1,0,16.07,16.071A16.071,16.071,0,0,0,32.444,1.246ZM31.185,16.179h2.471a4.175,4.175,0,1,1,.008,8.35v2.057a1.35,1.35,0,1,1-2.7,0V24.529H28.148a1.35,1.35,0,1,1,0-2.7h5.508a1.475,1.475,0,1,0,0-2.95H31.185a4.379,4.379,0,0,1-.221-8.752V8.048a1.35,1.35,0,1,1,2.7,0V10.1h3.075a1.35,1.35,0,0,1,0,2.7H31.185a1.687,1.687,0,0,0,0,3.375Z" fill="#ffbd5e"/>
    <path id="Path_2" data-name="Path 2" d="M15.106,36.736H8.548A1.043,1.043,0,0,0,7.5,37.78V60.161A1.043,1.043,0,0,0,8.548,61.2h6.558A2.274,2.274,0,0,0,17.38,58.93V39.01a2.274,2.274,0,0,0-2.274-2.274Z" fill="#ffbd5e"/>
    <path id="Path_3" data-name="Path 3" d="M56.328,39.364a3.8,3.8,0,0,0-3.185-1.716h-2.57a5.549,5.549,0,0,0-5.146,3.443A5.75,5.75,0,0,1,44.4,42.71a8.378,8.378,0,0,1-6.684,3.8H30.108a1.35,1.35,0,1,1,0-2.7h7.576a5.078,5.078,0,0,0,2.724-.877v-.046a5.219,5.219,0,0,0-5.218-5.239H29.6a7.737,7.737,0,0,0-5.5,2.27l-.143.142a7.247,7.247,0,0,1-3.886,2.013V56.985H40.45a15.43,15.43,0,0,0,14.19-9.347l2.007-4.671A3.8,3.8,0,0,0,56.328,39.364Z" fill="#ffbd5e"/>
  </g>
</svg>
