<?xml version="1.0" ?><svg height="400px" version="1.1" viewBox="0 0 400 400" width="400px" xmlns="http://www.w3.org/2000/svg" xmlns:xlink="http://www.w3.org/1999/xlink"><title/><desc/><defs><path d="M243.333334,75.3802623 C293.825003,93.401838 330,142.028618 330,199.18753 C330,271.689921 271.797017,330.464721 200,330.464721 C128.202983,330.464721 70,271.689921 70,199.18753 C70,142.028618 106.174997,93.401838 156.666666,75.3802623 L156.666667,113.414683 C125.798804,129.349211 104.666667,161.776288 104.666667,199.18753 C104.666667,252.35595 147.348854,295.45747 200,295.45747 C252.651146,295.45747 295.333333,252.35595 295.333333,199.18753 C295.333333,161.776288 274.201196,129.349211 243.333343,113.414688 L243.333333,75.3802568 L243.333334,75.3802623 Z" id="path-1"/><filter filterUnits="objectBoundingBox" height="200%" id="filter-2" width="200%" x="-50%" y="-50%"><feOffset dx="0" dy="4" in="SourceAlpha" result="shadowOffsetOuter1"/><feGaussianBlur in="shadowOffsetOuter1" result="shadowBlurOuter1" stdDeviation="2"/><feColorMatrix in="shadowBlurOuter1" type="matrix" values="0 0 0 0 0   0 0 0 0 0   0 0 0 0 0  0 0 0 0.5 0"/></filter><path d="M193.006168,50 L207.993832,50 C213.520086,50 218,54.4868372 218,60.0004348 L218,162.999565 C218,168.522653 213.531675,173 207.993832,173 L193.006168,173 C187.479914,173 183,168.513163 183,162.999565 L183,60.0004348 C183,54.4773472 187.468325,50 193.006168,50 Z" id="path-3"/><filter filterUnits="objectBoundingBox" height="200%" id="filter-4" width="200%" x="-50%" y="-50%"><feOffset dx="0" dy="4" in="SourceAlpha" result="shadowOffsetOuter1"/><feGaussianBlur in="shadowOffsetOuter1" result="shadowBlurOuter1" stdDeviation="2"/><feColorMatrix in="shadowBlurOuter1" type="matrix" values="0 0 0 0 0   0 0 0 0 0   0 0 0 0 0  0 0 0 0.5 0"/></filter></defs><g fill="none" fill-rule="evenodd" id="Page-1" stroke="none" stroke-width="1"><g id="on_off"><path d="M200,400 C310.45695,400 400,310.45695 400,200 C400,89.54305 310.45695,0 200,0 C89.54305,0 0,89.54305 0,200 C0,310.45695 89.54305,400 200,400 Z" fill="#AAD8B0" id="Oval-6"/><g id="Combined-Shape"><use fill="black" fill-opacity="1" filter="url(#filter-2)" xlink:href="#path-1"/><use fill="#697F9B" fill-rule="evenodd" xlink:href="#path-1"/></g><g id="Combined-Shape"><use fill="black" fill-opacity="1" filter="url(#filter-4)" xlink:href="#path-3"/><use fill="#67ADD5" fill-rule="evenodd" xlink:href="#path-3"/></g></g></g></svg>