<svg id="_403022_business_man_male_user_avatar_profile_icon" data-name="403022_business man_male_user_avatar_profile_icon" xmlns="http://www.w3.org/2000/svg" xmlns:xlink="http://www.w3.org/1999/xlink" width="94.271" height="94.271" viewBox="0 0 94.271 94.271">
  <defs>
    <clipPath id="clip-path">
      <circle id="Ellipse_38" data-name="Ellipse 38" cx="47.135" cy="47.135" r="47.135"/>
    </clipPath>
    <clipPath id="clip-path-3">
      <path id="Path_61" data-name="Path 61" d="M28.336,116.526l26.3,7.259a11.451,11.451,0,0,1,6.693,6.222v9.239H-32.94v-9.239a11.192,11.192,0,0,1,6.693-6.222l26.3-7.259V102.48H28.336Z" transform="translate(32.94 -102.48)"/>
    </clipPath>
  </defs>
  <g id="Group_211" data-name="Group 211">
    <circle id="Ellipse_37" data-name="Ellipse 37" cx="47.135" cy="47.135" r="47.135" fill="#f5eee5"/>
    <g id="Group_210" data-name="Group 210">
      <g id="Group_203" data-name="Group 203" clip-path="url(#clip-path)">
        <path id="Path_59" data-name="Path 59" d="M28.336,116.526l26.3,7.259a11.451,11.451,0,0,1,6.693,6.222v9.239H-32.94v-9.239a11.192,11.192,0,0,1,6.693-6.222l26.3-7.259V102.48H28.336Z" transform="translate(32.94 -44.975)" fill="#d4b08c"/>
      </g>
      <g id="Group_209" data-name="Group 209" clip-path="url(#clip-path)">
        <g id="Group_204" data-name="Group 204" transform="translate(0 57.505)" clip-path="url(#clip-path-3)">
          <path id="Path_60" data-name="Path 60" d="M14.384,124.274H7.6L3.071,119.56H-32.94v23.568H61.614V119.56H25.7l-4.525,4.714Z" transform="translate(32.94 -106.362)" fill="#1e1e23"/>
        </g>
        <g id="Group_205" data-name="Group 205" transform="translate(0 57.505)" clip-path="url(#clip-path-3)">
          <path id="Path_62" data-name="Path 62" d="M23.706,123.525h.943l13.858-7.259L33.039,143.51l-9.333-1.037-9.333,1.037L8.906,116.266l13.858,7.259Z" transform="translate(23.429 -105.613)" fill="#c1cad4"/>
        </g>
        <g id="Group_206" data-name="Group 206" transform="translate(0 57.505)" clip-path="url(#clip-path-3)">
          <path id="Path_64" data-name="Path 64" d="M23.9,136.64h4.714l3.771,11.312H20.13Z" transform="translate(20.878 -110.244)" fill="#216dd9"/>
        </g>
        <g id="Group_207" data-name="Group 207" transform="translate(0 57.505)" clip-path="url(#clip-path-3)">
          <path id="Path_66" data-name="Path 66" d="M15.25,125.66h19.8l-7.542,8.484H22.792Z" transform="translate(21.987 -107.749)" fill="#249cf2"/>
        </g>
        <g id="Group_208" data-name="Group 208" transform="translate(0 57.505)" clip-path="url(#clip-path-3)">
          <path id="Path_68" data-name="Path 68" d="M38.235,113.46,24.66,122.887l10.181,10.37L38.707,114.4Zm-29.224,0,13.575,9.427-10.181,10.37L8.54,114.4Z" transform="translate(23.512 -104.976)" fill="#fff"/>
        </g>
      </g>
    </g>
    <path id="Path_70" data-name="Path 70" d="M22.514,102.257a12.07,12.07,0,0,1-4.525-.848A59.026,59.026,0,0,1,9.411,95.47C7.054,93.3,5.828,90.662,5.451,86.042S3.66,65.02,3.66,61.249c0-5.373,4.808-13.669,18.854-13.669h0c14.046,0,18.854,8.3,18.854,13.669,0,3.771-1.414,20.268-1.791,24.887s-1.508,7.259-3.959,9.427a64.615,64.615,0,0,1-8.579,5.939,14.233,14.233,0,0,1-4.525.754Z" transform="translate(24.621 -32.497)" fill="#f2cea5"/>
    <path id="Path_71" data-name="Path 71" d="M32.585,101.26h-13.2c-.377,0-.566.377-.377.754,1.226,2.168,3.488,3.3,6.316,3.488a8.863,8.863,0,0,0,7.636-3.488A.493.493,0,0,0,32.585,101.26Z" transform="translate(21.149 -44.698)" fill="#a3705f"/>
    <circle id="Ellipse_40" data-name="Ellipse 40" cx="1.885" cy="1.885" r="1.885" transform="translate(53.734 40.536)" fill="#262626"/>
    <circle id="Ellipse_41" data-name="Ellipse 41" cx="1.885" cy="1.885" r="1.885" transform="translate(36.766 40.536)" fill="#262626"/>
    <path id="Path_72" data-name="Path 72" d="M9.76,78.468S10.8,75.64,15.511,75.64a6.871,6.871,0,0,1,6.033,2.828" transform="translate(23.235 -38.874)" fill="none" stroke="#cc9872" stroke-width="2.44"/>
    <path id="Path_73" data-name="Path 73" d="M42.849,78.468S41.812,75.64,37.1,75.64c-4.525,0-6.6,2.828-6.6,4.714v8.484" transform="translate(18.521 -38.874)" fill="none" stroke="#bb8660" stroke-width="2.44"/>
    <path id="Path_74" data-name="Path 74" d="M47.109,78.739s.754-5.939,3.488-6.787a56,56,0,0,0,1.414-9.333c0-2.734-.283-5.373-1.791-7.636a10.177,10.177,0,0,0-7.165-3.865c-2.168,1.32-7.259,4.336-8.861,6.128-.848.943.377,1.7.377,1.7a13.552,13.552,0,0,1,1.6-.566c2.357-.66,7.542-1.131,9.144,1.226C47.3,62.43,47.3,70.726,47.3,71.952,47.3,73.083,47.109,78.739,47.109,78.739Z" transform="translate(17.749 -33.301)" fill="#d98c21"/>
    <path id="Path_75" data-name="Path 75" d="M.194,69.539c2.734.943,3.488,6.787,3.488,6.787s-.189-5.656-.189-6.787c0-1.508.189-8.579,3.205-11.972,3.394-3.771,7.919-5,10.464-3.3,1.32.848,5.751,5.185,10.464,1.6C30.455,53.7,35.64,48.8,35.64,48.8s-2.734-8.39-15.178-7.447A41.935,41.935,0,0,1,9.338,40.5a6.669,6.669,0,0,0,.848,3.582C2.362,46.349-.183,52.005-.937,56.341a11.7,11.7,0,0,0-.283,2.545v1.32A57.594,57.594,0,0,0,.194,69.539Z" transform="translate(25.73 -30.888)" fill="#e6a422"/>
  </g>
</svg>
