<svg xmlns="http://www.w3.org/2000/svg" width="126" height="126" viewBox="0 0 126 126">
  <g id="Group_1125" data-name="Group 1125" transform="translate(6398 -5461)">
    <g id="rechargehistory" transform="translate(-6399 5460)">
      <path id="Path_193" data-name="Path 193" d="M119,61H43a8.009,8.009,0,0,0-8,8V87H25a3.992,3.992,0,0,0-3.581,2.253l-7.579.759a2.227,2.227,0,0,0-1.525.945A6.005,6.005,0,0,1,7,85V48a6.006,6.006,0,0,1,6-6h97a17,17,0,0,0,0-34H34V7a3,3,0,0,0-6-.037C23.251,6.78,19.9,5.3,17.811,2.414A4.018,4.018,0,0,0,15,1H13a2,2,0,0,0-2,2V4H4a3,3,0,0,0,0,6h7v2H4a3,3,0,0,0,0,6h7v1a2,2,0,0,0,2,2h2a3.7,3.7,0,0,0,2.839-1.455c2.385-3.672,4.02-4.467,10.162-4.538A3,3,0,0,0,34,15V14h76a11,11,0,0,1,0,22H13A12.013,12.013,0,0,0,1,48V85A12,12,0,0,0,12.27,96.963a2.275,2.275,0,0,0,1.63,1.032l7.518.752A3.993,3.993,0,0,0,25,101H35v18a8.009,8.009,0,0,0,8,8h76a8.009,8.009,0,0,0,8-8V69A8.009,8.009,0,0,0,119,61ZM3,7A1,1,0,0,1,4,6H6V8H4A1,1,0,0,1,3,7ZM8,8V6h3V8ZM3,15a1,1,0,0,1,1-1H6v2H4A1,1,0,0,1,3,15Zm5,1V14h3v2Zm8.162,2.454A1.8,1.8,0,0,1,15,19H13V3h2a2.2,2.2,0,0,1,1.189.586C18.673,7.019,22.557,8.768,28,8.961v4.046C21.56,13.08,19.092,13.944,16.162,18.454ZM32,15a1,1,0,0,1-2,0V7a1,1,0,0,1,2,0ZM3,85V48A10.011,10.011,0,0,1,13,38h97a13,13,0,0,0,0-26H34V10h76a15,15,0,0,1,0,30H13a8.009,8.009,0,0,0-8,8V85a8.008,8.008,0,0,0,7,7.931V94.95A10.015,10.015,0,0,1,3,85ZM14,95.992l-.022-3.882c0-.018.009-.034.01-.052a.342.342,0,0,1,.111-.063L21,91.3v5.39l-6.84-.682C14.073,96,14,95.956,14,95.992ZM25,99a2,2,0,0,1-1.916-1.458l-.015-.048A1.97,1.97,0,0,1,23,97V91a1.97,1.97,0,0,1,.069-.494l.015-.048A2,2,0,0,1,25,89H35V99Zm100,20a6.006,6.006,0,0,1-6,6H43a6.006,6.006,0,0,1-6-6V69a6.006,6.006,0,0,1,6-6h76a6.006,6.006,0,0,1,6,6Z" fill="#6418c2"/>
      <path id="Path_194" data-name="Path 194" d="M115,66H87c-2.086,0-6,2.648-6,5v47c0,2.352,3.914,5,6,5h28c2.086,0,6-2.648,6-5V71C121,68.648,117.086,66,115,66Zm4,52c0,.953-2.729,3-4,3H87c-1.271,0-4-2.047-4-3V71c0-.953,2.729-3,4-3h28c1.271,0,4,2.047,4,3Z" fill="#6418c2"/>
      <path id="Path_195" data-name="Path 195" d="M97,79h8a1,1,0,0,0,.832-1.554l-4-6a1.037,1.037,0,0,0-1.664,0l-4,6A1,1,0,0,0,97,79Zm4-5.2,2.132,3.2H98.868Z" fill="#6418c2"/>
      <path id="Path_196" data-name="Path 196" d="M73,70a3,3,0,1,0,3,3A3,3,0,0,0,73,70Zm0,4a1,1,0,1,1,1-1A1,1,0,0,1,73,74Z" fill="#6418c2"/>
      <path id="Path_197" data-name="Path 197" d="M73,80a3,3,0,1,0,3,3A3,3,0,0,0,73,80Zm0,4a1,1,0,1,1,1-1A1,1,0,0,1,73,84Z" fill="#6418c2"/>
      <path id="Path_198" data-name="Path 198" d="M73,90a3,3,0,1,0,3,3A3,3,0,0,0,73,90Zm0,4a1,1,0,1,1,1-1A1,1,0,0,1,73,94Z" fill="#6418c2"/>
      <path id="Path_199" data-name="Path 199" d="M73,100a3,3,0,0,0-3,3v14a3,3,0,0,0,6,0V103A3,3,0,0,0,73,100Zm1,17a1,1,0,0,1-2,0V103a1,1,0,0,1,2,0Z" fill="#6418c2"/>
      <path id="Path_200" data-name="Path 200" d="M111,95h-6.382l3.276-6.553A1,1,0,0,0,107,87h-7a1,1,0,0,0-.871.51l-9,16A1,1,0,0,0,91,105h6.195l-4.043,6.47A1,1,0,0,0,94,113h8a1,1,0,0,0,.871-.51l9-16A1,1,0,0,0,111,95Zm-9.585,16h-5.61l4.043-6.47A1,1,0,0,0,99,103H92.71l7.875-14h4.8l-3.276,6.553A1,1,0,0,0,103,97h6.29Z" fill="#6418c2"/>
    </g>
    <path id="Path_201" data-name="Path 201" d="M-6298.086,5550.407h3.094l-3.094,7.43h6.04l-6.04,12.923h-3.642l4.63-9.261h-6.461Z" fill="#ffff5e"/>
  </g>
</svg>
