<svg xmlns="http://www.w3.org/2000/svg" width="56.54" height="55.919" viewBox="0 0 56.54 55.919">
  <g id="Layer_2" transform="translate(2.121 1.5)">
    <g id="Group_824" data-name="Group 824">
      <line id="Line_56" data-name="Line 56" y2="3.795" transform="translate(26.562 15.178)" fill="none" stroke="#2ca3e5" stroke-linecap="round" stroke-linejoin="round" stroke-miterlimit="10" stroke-width="3"/>
      <line id="Line_57" data-name="Line 57" y2="3.795" transform="translate(26.562 34.151)" fill="none" stroke="#2ca3e5" stroke-linecap="round" stroke-linejoin="round" stroke-miterlimit="10" stroke-width="3"/>
      <path id="Path_162" data-name="Path 162" d="M14.89,27.12h5.67a3.78,3.78,0,1,0,0-7.56H16.78a3.78,3.78,0,1,1,0-7.56h5.67" transform="translate(7.79 6.9)" fill="none" stroke="#2ca3e5" stroke-linecap="round" stroke-linejoin="round" stroke-miterlimit="10" stroke-width="3"/>
      <path id="Path_163" data-name="Path 163" d="M24.9,6A18.9,18.9,0,1,1,6,24.9V19.23" transform="translate(1.56 1.56)" fill="none" stroke="#2ca3e5" stroke-linecap="round" stroke-linejoin="round" stroke-miterlimit="10" stroke-width="3"/>
      <path id="Path_164" data-name="Path 164" d="M17.12,20.56,9.56,13,2,20.56" transform="translate(-2 7.79)" fill="none" stroke="#2ca3e5" stroke-linecap="round" stroke-linejoin="round" stroke-miterlimit="10" stroke-width="3"/>
      <path id="Path_165" data-name="Path 165" d="M16,2a26.459,26.459,0,1,1,0,52.919" transform="translate(10.459 -2)" fill="none" stroke="#2ca3e5" stroke-linecap="round" stroke-linejoin="round" stroke-miterlimit="10" stroke-width="3"/>
    </g>
  </g>
</svg>
