<svg xmlns="http://www.w3.org/2000/svg" viewBox="0 0 500 500"><g id="freepik--background-complete--inject-52"><rect x="417.41" y="60.85" width="26.48" height="11.19" transform="translate(861.29 132.88) rotate(-180)" style="fill:none;stroke:#ebebeb;stroke-miterlimit:10;stroke-width:0.75px"></rect><rect x="432.18" y="46.74" width="26.48" height="11.19" transform="translate(890.84 104.66) rotate(180)" style="fill:none;stroke:#ebebeb;stroke-miterlimit:10;stroke-width:0.75px"></rect><rect x="250" y="170.97" width="26.48" height="11.19" transform="translate(526.48 353.13) rotate(180)" style="fill:none;stroke:#ebebeb;stroke-miterlimit:10;stroke-width:0.75px"></rect><rect x="264.77" y="156.86" width="26.48" height="11.19" transform="translate(556.02 324.91) rotate(180)" style="fill:none;stroke:#ebebeb;stroke-miterlimit:10;stroke-width:0.75px"></rect><rect x="279.49" y="170.97" width="26.48" height="11.19" transform="translate(585.45 353.13) rotate(180)" style="fill:none;stroke:#ebebeb;stroke-miterlimit:10;stroke-width:0.75px"></rect><rect x="41.34" y="46.74" width="26.48" height="11.19" transform="translate(109.16 104.66) rotate(180)" style="fill:none;stroke:#ebebeb;stroke-miterlimit:10;stroke-width:0.75px"></rect><rect x="56.11" y="309.85" width="26.48" height="11.19" transform="translate(138.71 630.89) rotate(180)" style="fill:none;stroke:#ebebeb;stroke-miterlimit:10;stroke-width:0.75px"></rect><rect x="41.34" y="295.74" width="26.48" height="11.19" transform="translate(109.16 602.67) rotate(180)" style="fill:none;stroke:#ebebeb;stroke-miterlimit:10;stroke-width:0.75px"></rect><rect x="417.41" y="309.85" width="26.48" height="11.19" transform="translate(861.29 630.89) rotate(-180)" style="fill:none;stroke:#ebebeb;stroke-miterlimit:10;stroke-width:0.75px"></rect><polyline points="208.82 421.54 208.82 295.88 235.55 259.39 235.55 191.06" style="fill:none;stroke:#ebebeb;stroke-miterlimit:10"></polyline><path d="M233.18,188.73a2.38,2.38,0,1,0,2.37-2.38A2.37,2.37,0,0,0,233.18,188.73Z" style="fill:none;stroke:#ebebeb;stroke-miterlimit:10"></path><polyline points="215.71 421.54 215.71 300.29 242.44 263.8 242.44 216.06" style="fill:none;stroke:#ebebeb;stroke-miterlimit:10"></polyline><path d="M240.06,213.72a2.38,2.38,0,1,0,2.38-2.37A2.38,2.38,0,0,0,240.06,213.72Z" style="fill:none;stroke:#ebebeb;stroke-miterlimit:10"></path><line x1="202.19" y1="421.54" x2="202.19" y2="255.13" style="fill:none;stroke:#ebebeb;stroke-miterlimit:10"></line><path d="M199.81,252.75a2.38,2.38,0,1,0,2.38-2.37A2.38,2.38,0,0,0,199.81,252.75Z" style="fill:none;stroke:#ebebeb;stroke-miterlimit:10"></path><polyline points="195.8 421.54 195.8 336.96 177.66 302.74 177.66 241.37" style="fill:none;stroke:#ebebeb;stroke-miterlimit:10"></polyline><path d="M175.28,239a2.38,2.38,0,1,0,2.38-2.38A2.37,2.37,0,0,0,175.28,239Z" style="fill:none;stroke:#ebebeb;stroke-miterlimit:10"></path><polyline points="189.45 421.54 189.45 340.62 168.06 302.78 168.06 262.37" style="fill:none;stroke:#ebebeb;stroke-miterlimit:10"></polyline><path d="M165.68,260a2.38,2.38,0,1,0,2.38-2.37A2.39,2.39,0,0,0,165.68,260Z" style="fill:none;stroke:#ebebeb;stroke-miterlimit:10"></path><line x1="110.72" y1="37.56" x2="110.72" style="fill:none;stroke:#c7c7c7;stroke-miterlimit:10"></line><polygon points="133.93 59.92 132.06 64.03 89.38 64.03 87.52 59.92 105.69 47.35 115.76 47.35 133.93 59.92" style="fill:#ebebeb"></polygon><polygon points="117.02 35.23 115.76 47.35 105.69 47.35 104.43 35.23 117.02 35.23" style="fill:#dbdbdb"></polygon><polygon points="133.93 59.93 132.06 64.03 89.38 64.03 87.52 59.93 133.93 59.93" style="fill:#dbdbdb"></polygon><line x1="203.58" y1="37.56" x2="203.58" style="fill:none;stroke:#c7c7c7;stroke-miterlimit:10"></line><polygon points="226.78 59.92 224.91 64.03 182.23 64.03 180.37 59.92 198.54 47.35 208.61 47.35 226.78 59.92" style="fill:#ebebeb"></polygon><polygon points="209.87 35.23 208.61 47.35 198.54 47.35 197.28 35.23 209.87 35.23" style="fill:#dbdbdb"></polygon><polygon points="226.78 59.93 224.91 64.03 182.23 64.03 180.37 59.93 226.78 59.93" style="fill:#dbdbdb"></polygon><line x1="296.43" y1="37.56" x2="296.43" style="fill:none;stroke:#c7c7c7;stroke-miterlimit:10"></line><polygon points="319.63 59.92 317.77 64.03 275.08 64.03 273.22 59.92 291.39 47.35 301.46 47.35 319.63 59.92" style="fill:#ebebeb"></polygon><polygon points="302.72 35.23 301.46 47.35 291.39 47.35 290.13 35.23 302.72 35.23" style="fill:#dbdbdb"></polygon><polygon points="319.63 59.93 317.76 64.03 275.08 64.03 273.22 59.93 319.63 59.93" style="fill:#dbdbdb"></polygon><line x1="389.28" y1="37.56" x2="389.28" style="fill:none;stroke:#c7c7c7;stroke-miterlimit:10"></line><polygon points="412.49 59.92 410.62 64.03 367.93 64.03 366.07 59.92 384.25 47.35 394.31 47.35 412.49 59.92" style="fill:#ebebeb"></polygon><polygon points="395.57 35.23 394.31 47.35 384.25 47.35 382.98 35.23 395.57 35.23" style="fill:#dbdbdb"></polygon><polygon points="412.48 59.93 410.62 64.03 367.93 64.03 366.07 59.93 412.48 59.93" style="fill:#dbdbdb"></polygon></g><g id="freepik--Shadow--inject-52"><ellipse cx="183.79" cy="443.41" rx="106.41" ry="16.99" style="fill:#ebebeb"></ellipse></g><g id="freepik--Server--inject-52"><rect x="267.37" y="176.42" width="65.02" height="245.17" style="fill:#37474f"></rect><rect x="332.39" y="176.42" width="119.66" height="245.17" style="fill:#455a64"></rect><rect x="341.37" y="389.79" width="103.21" height="23.84" style="fill:#37474f"></rect><rect x="345.71" y="393.73" width="58.75" height="2.01" style="fill:#455a64"></rect><rect x="345.71" y="397.22" width="58.75" height="2.01" style="fill:#455a64"></rect><rect x="345.71" y="400.71" width="58.75" height="2.01" style="fill:#455a64"></rect><rect x="345.71" y="404.19" width="58.75" height="2.01" style="fill:#455a64"></rect><rect x="345.71" y="407.68" width="58.75" height="2.01" style="fill:#455a64"></rect><path d="M415.17,395.73a2,2,0,1,1-2-2A2,2,0,0,1,415.17,395.73Z" style="fill:#6418C2"></path><path d="M421.75,395.73a2,2,0,1,1-2-2A2,2,0,0,1,421.75,395.73Z" style="fill:#6418C2"></path><path d="M428.33,395.73a2,2,0,1,1-2-2A2,2,0,0,1,428.33,395.73Z" style="fill:#6418C2"></path><path d="M434.9,395.73a2,2,0,1,1-2-2A2,2,0,0,1,434.9,395.73Z" style="fill:#6418C2"></path><path d="M441.48,395.73a2,2,0,1,1-2-2A2,2,0,0,1,441.48,395.73Z" style="fill:#6418C2"></path><path d="M415.17,401.71a2,2,0,1,1-2-2A2,2,0,0,1,415.17,401.71Z" style="fill:#6418C2"></path><path d="M421.75,401.71a2,2,0,1,1-2-2A2,2,0,0,1,421.75,401.71Z" style="fill:#6418C2"></path><path d="M428.33,401.71a2,2,0,1,1-2-2A2,2,0,0,1,428.33,401.71Z" style="fill:#6418C2"></path><path d="M434.9,401.71a2,2,0,1,1-2-2A2,2,0,0,1,434.9,401.71Z" style="fill:#6418C2"></path><path d="M441.48,401.71a2,2,0,1,1-2-2A2,2,0,0,1,441.48,401.71Z" style="fill:#6418C2"></path><circle cx="413.18" cy="407.7" r="2" style="fill:#6418C2"></circle><path d="M421.75,407.7a2,2,0,1,1-2-2A2,2,0,0,1,421.75,407.7Z" style="fill:#6418C2"></path><circle cx="426.33" cy="407.7" r="2" style="fill:#6418C2"></circle><path d="M434.9,407.7a2,2,0,1,1-2-2A2,2,0,0,1,434.9,407.7Z" style="fill:#6418C2"></path><path d="M441.48,407.7a2,2,0,1,1-2-2A2,2,0,0,1,441.48,407.7Z" style="fill:#6418C2"></path><rect x="407.4" y="393.73" width="1.15" height="15.96" style="fill:#263238"></rect><rect x="341.37" y="361.07" width="103.21" height="23.84" style="fill:#37474f"></rect><rect x="345.71" y="365" width="58.75" height="2.01" style="fill:#455a64"></rect><rect x="345.71" y="368.49" width="58.75" height="2.01" style="fill:#455a64"></rect><rect x="345.71" y="371.98" width="58.75" height="2.01" style="fill:#455a64"></rect><rect x="345.71" y="375.47" width="58.75" height="2.01" style="fill:#455a64"></rect><rect x="345.71" y="378.95" width="58.75" height="2.01" style="fill:#455a64"></rect><path d="M415.17,367a2,2,0,1,1-2-2A2,2,0,0,1,415.17,367Z" style="fill:#6418C2"></path><path d="M421.75,367a2,2,0,1,1-2-2A2,2,0,0,1,421.75,367Z" style="fill:#6418C2"></path><path d="M428.33,367a2,2,0,1,1-2-2A2,2,0,0,1,428.33,367Z" style="fill:#6418C2"></path><path d="M434.9,367a2,2,0,1,1-2-2A2,2,0,0,1,434.9,367Z" style="fill:#6418C2"></path><path d="M441.48,367a2,2,0,1,1-2-2A2,2,0,0,1,441.48,367Z" style="fill:#6418C2"></path><path d="M415.17,373a2,2,0,1,1-2-2A2,2,0,0,1,415.17,373Z" style="fill:#6418C2"></path><path d="M421.75,373a2,2,0,1,1-2-2A2,2,0,0,1,421.75,373Z" style="fill:#6418C2"></path><path d="M428.33,373a2,2,0,1,1-2-2A2,2,0,0,1,428.33,373Z" style="fill:#6418C2"></path><path d="M434.9,373a2,2,0,1,1-2-2A2,2,0,0,1,434.9,373Z" style="fill:#6418C2"></path><path d="M441.48,373a2,2,0,1,1-2-2A2,2,0,0,1,441.48,373Z" style="fill:#6418C2"></path><path d="M415.17,379a2,2,0,1,1-2-2A2,2,0,0,1,415.17,379Z" style="fill:#6418C2"></path><path d="M421.75,379a2,2,0,1,1-2-2A2,2,0,0,1,421.75,379Z" style="fill:#6418C2"></path><path d="M428.33,379a2,2,0,1,1-2-2A2,2,0,0,1,428.33,379Z" style="fill:#6418C2"></path><path d="M434.9,379a2,2,0,1,1-2-2A2,2,0,0,1,434.9,379Z" style="fill:#6418C2"></path><path d="M441.48,379a2,2,0,1,1-2-2A2,2,0,0,1,441.48,379Z" style="fill:#6418C2"></path><rect x="407.4" y="365" width="1.15" height="15.96" style="fill:#263238"></rect><rect x="341.37" y="332.34" width="103.21" height="23.84" style="fill:#37474f"></rect><rect x="345.71" y="336.28" width="58.75" height="2.01" style="fill:#455a64"></rect><rect x="345.71" y="339.76" width="58.75" height="2.01" style="fill:#455a64"></rect><rect x="345.71" y="343.25" width="58.75" height="2.01" style="fill:#455a64"></rect><rect x="345.71" y="346.74" width="58.75" height="2.01" style="fill:#455a64"></rect><rect x="345.71" y="350.23" width="58.75" height="2.01" style="fill:#455a64"></rect><circle cx="413.18" cy="338.27" r="2" style="fill:#6418C2"></circle><path d="M421.75,338.27a2,2,0,1,1-2-2A2,2,0,0,1,421.75,338.27Z" style="fill:#6418C2"></path><circle cx="426.33" cy="338.27" r="2" style="fill:#6418C2"></circle><path d="M434.9,338.27a2,2,0,1,1-2-2A2,2,0,0,1,434.9,338.27Z" style="fill:#6418C2"></path><path d="M441.48,338.27a2,2,0,1,1-2-2A2,2,0,0,1,441.48,338.27Z" style="fill:#6418C2"></path><path d="M415.17,344.26a2,2,0,1,1-2-2A2,2,0,0,1,415.17,344.26Z" style="fill:#6418C2"></path><path d="M421.75,344.26a2,2,0,1,1-2-2A2,2,0,0,1,421.75,344.26Z" style="fill:#6418C2"></path><path d="M428.33,344.26a2,2,0,1,1-2-2A2,2,0,0,1,428.33,344.26Z" style="fill:#6418C2"></path><path d="M434.9,344.26a2,2,0,1,1-2-2A2,2,0,0,1,434.9,344.26Z" style="fill:#6418C2"></path><path d="M441.48,344.26a2,2,0,1,1-2-2A2,2,0,0,1,441.48,344.26Z" style="fill:#6418C2"></path><path d="M415.17,350.24a2,2,0,1,1-2-2A2,2,0,0,1,415.17,350.24Z" style="fill:#6418C2"></path><path d="M421.75,350.24a2,2,0,1,1-2-2A2,2,0,0,1,421.75,350.24Z" style="fill:#6418C2"></path><path d="M428.33,350.24a2,2,0,1,1-2-2A2,2,0,0,1,428.33,350.24Z" style="fill:#6418C2"></path><path d="M434.9,350.24a2,2,0,1,1-2-2A2,2,0,0,1,434.9,350.24Z" style="fill:#6418C2"></path><path d="M441.48,350.24a2,2,0,1,1-2-2A2,2,0,0,1,441.48,350.24Z" style="fill:#6418C2"></path><rect x="407.4" y="336.28" width="1.15" height="15.96" style="fill:#263238"></rect><rect x="341.37" y="303.61" width="103.21" height="23.84" style="fill:#37474f"></rect><rect x="345.71" y="307.55" width="58.75" height="2.01" style="fill:#455a64"></rect><rect x="345.71" y="311.03" width="58.75" height="2.01" style="fill:#455a64"></rect><rect x="345.71" y="314.52" width="58.75" height="2.01" style="fill:#455a64"></rect><rect x="345.71" y="318.01" width="58.75" height="2.01" style="fill:#455a64"></rect><rect x="345.71" y="321.5" width="58.75" height="2.01" style="fill:#455a64"></rect><path d="M415.17,309.54a2,2,0,1,1-2-2A2,2,0,0,1,415.17,309.54Z" style="fill:#6418C2"></path><path d="M421.75,309.54a2,2,0,1,1-2-2A2,2,0,0,1,421.75,309.54Z" style="fill:#6418C2"></path><path d="M428.33,309.54a2,2,0,1,1-2-2A2,2,0,0,1,428.33,309.54Z" style="fill:#6418C2"></path><path d="M434.9,309.54a2,2,0,1,1-2-2A2,2,0,0,1,434.9,309.54Z" style="fill:#6418C2"></path><path d="M441.48,309.54a2,2,0,1,1-2-2A2,2,0,0,1,441.48,309.54Z" style="fill:#6418C2"></path><circle cx="413.18" cy="315.53" r="2" style="fill:#6418C2"></circle><path d="M421.75,315.53a2,2,0,1,1-2-2A2,2,0,0,1,421.75,315.53Z" style="fill:#6418C2"></path><circle cx="426.33" cy="315.53" r="2" style="fill:#6418C2"></circle><path d="M434.9,315.53a2,2,0,1,1-2-2A2,2,0,0,1,434.9,315.53Z" style="fill:#6418C2"></path><path d="M441.48,315.53a2,2,0,1,1-2-2A2,2,0,0,1,441.48,315.53Z" style="fill:#6418C2"></path><circle cx="413.18" cy="321.51" r="2" style="fill:#6418C2"></circle><path d="M421.75,321.51a2,2,0,1,1-2-2A2,2,0,0,1,421.75,321.51Z" style="fill:#6418C2"></path><circle cx="426.33" cy="321.51" r="2" style="fill:#6418C2"></circle><path d="M434.9,321.51a2,2,0,1,1-2-2A2,2,0,0,1,434.9,321.51Z" style="fill:#6418C2"></path><path d="M441.48,321.51a2,2,0,1,1-2-2A2,2,0,0,1,441.48,321.51Z" style="fill:#6418C2"></path><rect x="407.4" y="307.55" width="1.15" height="15.96" style="fill:#263238"></rect><rect x="341.37" y="274.88" width="103.21" height="23.84" style="fill:#37474f"></rect><rect x="345.71" y="278.82" width="58.75" height="2.01" style="fill:#455a64"></rect><rect x="345.71" y="282.31" width="58.75" height="2.01" style="fill:#455a64"></rect><rect x="345.71" y="285.79" width="58.75" height="2.01" style="fill:#455a64"></rect><rect x="345.71" y="289.28" width="58.75" height="2.01" style="fill:#455a64"></rect><rect x="345.71" y="292.77" width="58.75" height="2.01" style="fill:#455a64"></rect><circle cx="413.18" cy="280.82" r="2" style="fill:#6418C2"></circle><path d="M421.75,280.82a2,2,0,1,1-2-2A2,2,0,0,1,421.75,280.82Z" style="fill:#6418C2"></path><circle cx="426.33" cy="280.82" r="2" style="fill:#6418C2"></circle><path d="M434.9,280.82a2,2,0,1,1-2-2A2,2,0,0,1,434.9,280.82Z" style="fill:#6418C2"></path><path d="M441.48,280.82a2,2,0,1,1-2-2A2,2,0,0,1,441.48,280.82Z" style="fill:#6418C2"></path><circle cx="413.18" cy="286.8" r="2" style="fill:#6418C2"></circle><path d="M421.75,286.8a2,2,0,1,1-2-2A2,2,0,0,1,421.75,286.8Z" style="fill:#6418C2"></path><circle cx="426.33" cy="286.8" r="2" style="fill:#6418C2"></circle><path d="M434.9,286.8a2,2,0,1,1-2-2A2,2,0,0,1,434.9,286.8Z" style="fill:#6418C2"></path><path d="M441.48,286.8a2,2,0,1,1-2-2A2,2,0,0,1,441.48,286.8Z" style="fill:#6418C2"></path><path d="M415.17,292.79a2,2,0,1,1-2-2A2,2,0,0,1,415.17,292.79Z" style="fill:#6418C2"></path><path d="M421.75,292.79a2,2,0,1,1-2-2A2,2,0,0,1,421.75,292.79Z" style="fill:#6418C2"></path><path d="M428.33,292.79a2,2,0,1,1-2-2A2,2,0,0,1,428.33,292.79Z" style="fill:#6418C2"></path><path d="M434.9,292.79a2,2,0,1,1-2-2A2,2,0,0,1,434.9,292.79Z" style="fill:#6418C2"></path><path d="M441.48,292.79a2,2,0,1,1-2-2A2,2,0,0,1,441.48,292.79Z" style="fill:#6418C2"></path><rect x="407.4" y="278.82" width="1.15" height="15.96" style="fill:#263238"></rect><rect x="341.37" y="246.15" width="103.21" height="23.84" style="fill:#37474f"></rect><rect x="345.71" y="250.09" width="58.75" height="2.01" style="fill:#455a64"></rect><rect x="345.71" y="253.58" width="58.75" height="2.01" style="fill:#455a64"></rect><rect x="345.71" y="257.07" width="58.75" height="2.01" style="fill:#455a64"></rect><rect x="345.71" y="260.55" width="58.75" height="2.01" style="fill:#455a64"></rect><rect x="345.71" y="264.04" width="58.75" height="2.01" style="fill:#455a64"></rect><path d="M415.17,252.09a2,2,0,1,1-2-2A2,2,0,0,1,415.17,252.09Z" style="fill:#6418C2"></path><path d="M421.75,252.09a2,2,0,1,1-2-2A2,2,0,0,1,421.75,252.09Z" style="fill:#6418C2"></path><path d="M428.33,252.09a2,2,0,1,1-2-2A2,2,0,0,1,428.33,252.09Z" style="fill:#6418C2"></path><path d="M434.9,252.09a2,2,0,1,1-2-2A2,2,0,0,1,434.9,252.09Z" style="fill:#6418C2"></path><path d="M441.48,252.09a2,2,0,1,1-2-2A2,2,0,0,1,441.48,252.09Z" style="fill:#6418C2"></path><path d="M415.17,258.07a2,2,0,1,1-2-2A2,2,0,0,1,415.17,258.07Z" style="fill:#6418C2"></path><path d="M421.75,258.07a2,2,0,1,1-2-2A2,2,0,0,1,421.75,258.07Z" style="fill:#6418C2"></path><path d="M428.33,258.07a2,2,0,1,1-2-2A2,2,0,0,1,428.33,258.07Z" style="fill:#6418C2"></path><path d="M434.9,258.07a2,2,0,1,1-2-2A2,2,0,0,1,434.9,258.07Z" style="fill:#6418C2"></path><path d="M441.48,258.07a2,2,0,1,1-2-2A2,2,0,0,1,441.48,258.07Z" style="fill:#6418C2"></path><path d="M415.17,264.06a2,2,0,1,1-2-2A2,2,0,0,1,415.17,264.06Z" style="fill:#6418C2"></path><path d="M421.75,264.06a2,2,0,1,1-2-2A2,2,0,0,1,421.75,264.06Z" style="fill:#6418C2"></path><path d="M428.33,264.06a2,2,0,1,1-2-2A2,2,0,0,1,428.33,264.06Z" style="fill:#6418C2"></path><path d="M434.9,264.06a2,2,0,1,1-2-2A2,2,0,0,1,434.9,264.06Z" style="fill:#6418C2"></path><path d="M441.48,264.06a2,2,0,1,1-2-2A2,2,0,0,1,441.48,264.06Z" style="fill:#6418C2"></path><rect x="407.4" y="250.09" width="1.15" height="15.96" style="fill:#263238"></rect><rect x="341.37" y="217.43" width="103.21" height="23.84" style="fill:#37474f"></rect><rect x="345.71" y="221.36" width="58.75" height="2.01" style="fill:#455a64"></rect><rect x="345.71" y="224.85" width="58.75" height="2.01" style="fill:#455a64"></rect><rect x="345.71" y="228.34" width="58.75" height="2.01" style="fill:#455a64"></rect><rect x="345.71" y="231.83" width="58.75" height="2.01" style="fill:#455a64"></rect><rect x="345.71" y="235.31" width="58.75" height="2.01" style="fill:#455a64"></rect><path d="M415.17,223.36a2,2,0,1,1-2-2A2,2,0,0,1,415.17,223.36Z" style="fill:#6418C2"></path><path d="M421.75,223.36a2,2,0,1,1-2-2A2,2,0,0,1,421.75,223.36Z" style="fill:#6418C2"></path><path d="M428.33,223.36a2,2,0,1,1-2-2A2,2,0,0,1,428.33,223.36Z" style="fill:#6418C2"></path><path d="M434.9,223.36a2,2,0,1,1-2-2A2,2,0,0,1,434.9,223.36Z" style="fill:#6418C2"></path><path d="M441.48,223.36a2,2,0,1,1-2-2A2,2,0,0,1,441.48,223.36Z" style="fill:#6418C2"></path><path d="M415.17,229.35a2,2,0,1,1-2-2A2,2,0,0,1,415.17,229.35Z" style="fill:#6418C2"></path><path d="M421.75,229.35a2,2,0,1,1-2-2A2,2,0,0,1,421.75,229.35Z" style="fill:#6418C2"></path><path d="M428.33,229.35a2,2,0,1,1-2-2A2,2,0,0,1,428.33,229.35Z" style="fill:#6418C2"></path><path d="M434.9,229.35a2,2,0,1,1-2-2A2,2,0,0,1,434.9,229.35Z" style="fill:#6418C2"></path><path d="M441.48,229.35a2,2,0,1,1-2-2A2,2,0,0,1,441.48,229.35Z" style="fill:#6418C2"></path><path d="M415.17,235.33a2,2,0,1,1-2-2A2,2,0,0,1,415.17,235.33Z" style="fill:#6418C2"></path><path d="M421.75,235.33a2,2,0,1,1-2-2A2,2,0,0,1,421.75,235.33Z" style="fill:#6418C2"></path><path d="M428.33,235.33a2,2,0,1,1-2-2A2,2,0,0,1,428.33,235.33Z" style="fill:#6418C2"></path><path d="M434.9,235.33a2,2,0,1,1-2-2A2,2,0,0,1,434.9,235.33Z" style="fill:#6418C2"></path><path d="M441.48,235.33a2,2,0,1,1-2-2A2,2,0,0,1,441.48,235.33Z" style="fill:#6418C2"></path><rect x="407.4" y="221.36" width="1.15" height="15.96" style="fill:#263238"></rect><rect x="341.37" y="188.7" width="103.21" height="23.84" style="fill:#37474f"></rect><rect x="345.71" y="192.64" width="58.75" height="2.01" style="fill:#455a64"></rect><rect x="345.71" y="196.12" width="58.75" height="2.01" style="fill:#455a64"></rect><rect x="345.71" y="199.61" width="58.75" height="2.01" style="fill:#455a64"></rect><rect x="345.71" y="203.1" width="58.75" height="2.01" style="fill:#455a64"></rect><rect x="345.71" y="206.59" width="58.75" height="2.01" style="fill:#455a64"></rect><path d="M415.17,194.63a2,2,0,1,1-2-2A2,2,0,0,1,415.17,194.63Z" style="fill:#6418C2"></path><path d="M421.75,194.63a2,2,0,1,1-2-2A2,2,0,0,1,421.75,194.63Z" style="fill:#6418C2"></path><path d="M428.33,194.63a2,2,0,1,1-2-2A2,2,0,0,1,428.33,194.63Z" style="fill:#6418C2"></path><path d="M434.9,194.63a2,2,0,1,1-2-2A2,2,0,0,1,434.9,194.63Z" style="fill:#6418C2"></path><path d="M441.48,194.63a2,2,0,1,1-2-2A2,2,0,0,1,441.48,194.63Z" style="fill:#6418C2"></path><circle cx="413.18" cy="200.62" r="2" style="fill:#6418C2"></circle><path d="M421.75,200.62a2,2,0,1,1-2-2A2,2,0,0,1,421.75,200.62Z" style="fill:#6418C2"></path><circle cx="426.33" cy="200.62" r="2" style="fill:#6418C2"></circle><path d="M434.9,200.62a2,2,0,1,1-2-2A2,2,0,0,1,434.9,200.62Z" style="fill:#6418C2"></path><path d="M441.48,200.62a2,2,0,1,1-2-2A2,2,0,0,1,441.48,200.62Z" style="fill:#6418C2"></path><path d="M415.17,206.6a2,2,0,1,1-2-2A2,2,0,0,1,415.17,206.6Z" style="fill:#6418C2"></path><path d="M421.75,206.6a2,2,0,1,1-2-2A2,2,0,0,1,421.75,206.6Z" style="fill:#6418C2"></path><path d="M428.33,206.6a2,2,0,1,1-2-2A2,2,0,0,1,428.33,206.6Z" style="fill:#6418C2"></path><path d="M434.9,206.6a2,2,0,1,1-2-2A2,2,0,0,1,434.9,206.6Z" style="fill:#6418C2"></path><path d="M441.48,206.6a2,2,0,1,1-2-2A2,2,0,0,1,441.48,206.6Z" style="fill:#6418C2"></path><rect x="407.4" y="192.64" width="1.15" height="15.96" style="fill:#263238"></rect><rect x="291.69" y="168.86" width="136.05" height="7.56" style="fill:#37474f"></rect><rect x="277.86" y="384.07" width="15.19" height="15.19" style="fill:#263238"></rect></g><g id="freepik--Texts--inject-52"><path d="M63,226.7V212.31h2.27V226.7Z" style="fill:#263238"></path><path d="M70.79,216.57V226.7H68.52V212.31H70.3l8.23,10.38V212.33h2.29V226.7H78.94Z" style="fill:#263238"></path><path d="M94.62,214.32H89.84V226.7H87.55V214.32h-4.8v-2H94.62Z" style="fill:#263238"></path><path d="M106.42,224.7v2H96.55V212.31h9.69v2H98.82v4.09h6.43v1.89H98.82v4.4Z" style="fill:#263238"></path><path d="M108.77,226.7V212.31H115a4,4,0,0,1,1.79.41,4.51,4.51,0,0,1,1.41,1.06,5,5,0,0,1,.92,1.5,4.66,4.66,0,0,1,.34,1.72,4.59,4.59,0,0,1-.21,1.39,4.52,4.52,0,0,1-.57,1.24,3.79,3.79,0,0,1-.89,1,3.47,3.47,0,0,1-1.15.62l3.38,5.47h-2.57l-3.12-5H111v5Zm2.27-7h4a1.87,1.87,0,0,0,.88-.21,2.12,2.12,0,0,0,.68-.59A3,3,0,0,0,117,218a3.17,3.17,0,0,0,.16-1,2.78,2.78,0,0,0-.19-1,3.23,3.23,0,0,0-.5-.85,2.53,2.53,0,0,0-.73-.58,1.92,1.92,0,0,0-.87-.21H111Z" style="fill:#263238"></path><path d="M124.44,216.57V226.7h-2.27V212.31H124l8.23,10.38V212.33h2.29V226.7h-1.88Z" style="fill:#263238"></path><path d="M142,212.31h2l5.68,14.39h-2.4l-1.52-3.91h-5.55l-1.5,3.91h-2.41Zm3.31,8.8L143,214.93l-2.39,6.18Z" style="fill:#263238"></path><path d="M151.4,226.7V212.31h2.27V224.7h7.72v2Z" style="fill:#263238"></path><path d="M176.21,215.7a3.18,3.18,0,0,0-.59-.48,5,5,0,0,0-.9-.47,6.63,6.63,0,0,0-1.14-.37,5.86,5.86,0,0,0-1.26-.14,3.39,3.39,0,0,0-2.12.53,1.74,1.74,0,0,0-.68,1.46,1.61,1.61,0,0,0,.21.86,1.89,1.89,0,0,0,.66.58,5.21,5.21,0,0,0,1.12.45q.66.19,1.56.42a17.39,17.39,0,0,1,2,.58,5.64,5.64,0,0,1,1.49.79,3.39,3.39,0,0,1,.95,1.15,3.73,3.73,0,0,1,.33,1.65,4.12,4.12,0,0,1-.41,1.89,3.6,3.6,0,0,1-1.14,1.28,4.77,4.77,0,0,1-1.67.73,8.41,8.41,0,0,1-2.05.24,10.25,10.25,0,0,1-3.17-.5,9.05,9.05,0,0,1-2.77-1.45l1-2a3.79,3.79,0,0,0,.76.59,6.5,6.5,0,0,0,1.15.6,10.9,10.9,0,0,0,1.43.47,6.49,6.49,0,0,0,1.6.19,3.87,3.87,0,0,0,2.07-.47,1.52,1.52,0,0,0,.73-1.38,1.45,1.45,0,0,0-.28-.91,2.44,2.44,0,0,0-.78-.64,7,7,0,0,0-1.23-.49c-.49-.15-1-.31-1.66-.47a16.84,16.84,0,0,1-1.88-.6,4.69,4.69,0,0,1-1.33-.76,3,3,0,0,1-.8-1,3.51,3.51,0,0,1-.27-1.45,4.15,4.15,0,0,1,.4-1.87,3.94,3.94,0,0,1,1.11-1.38,4.77,4.77,0,0,1,1.65-.84,7.24,7.24,0,0,1,2.07-.29,7.56,7.56,0,0,1,2.69.47,8.74,8.74,0,0,1,2.17,1.15Z" style="fill:#263238"></path><path d="M190,224.7v2h-9.87V212.31h9.69v2h-7.42v4.09h6.43v1.89h-6.43v4.4Z" style="fill:#263238"></path><path d="M192.3,226.7V212.31h6.27a4,4,0,0,1,1.79.41,4.51,4.51,0,0,1,1.41,1.06,5,5,0,0,1,.92,1.5A4.47,4.47,0,0,1,203,217a4.59,4.59,0,0,1-.21,1.39,4.8,4.8,0,0,1-.56,1.24,3.83,3.83,0,0,1-.9,1,3.47,3.47,0,0,1-1.15.62l3.38,5.47H201l-3.12-5h-3.33v5Zm2.27-7h4a1.84,1.84,0,0,0,.88-.21,2.12,2.12,0,0,0,.68-.59,2.8,2.8,0,0,0,.44-.86,3.18,3.18,0,0,0,.17-1,2.79,2.79,0,0,0-.2-1,3,3,0,0,0-.5-.85,2.53,2.53,0,0,0-.73-.58,1.91,1.91,0,0,0-.86-.21h-3.86Z" style="fill:#263238"></path><path d="M206.27,212.31l4.34,11.54,4.32-11.54h2.41l-5.76,14.39h-2l-5.77-14.39Z" style="fill:#263238"></path><path d="M229,224.7v2H219.1V212.31h9.69v2h-7.42v4.09h6.43v1.89h-6.43v4.4Z" style="fill:#263238"></path><path d="M231.32,226.7V212.31h6.27a4,4,0,0,1,1.79.41,4.51,4.51,0,0,1,1.41,1.06,5,5,0,0,1,.92,1.5,4.66,4.66,0,0,1,.34,1.72,4.59,4.59,0,0,1-.21,1.39,4.8,4.8,0,0,1-.56,1.24,4,4,0,0,1-.9,1,3.47,3.47,0,0,1-1.15.62l3.38,5.47H240l-3.12-5h-3.33v5Zm2.27-7h4a1.87,1.87,0,0,0,.88-.21,2.12,2.12,0,0,0,.68-.59,3,3,0,0,0,.44-.86,3.17,3.17,0,0,0,.16-1,2.78,2.78,0,0,0-.19-1,3.23,3.23,0,0,0-.5-.85,2.53,2.53,0,0,0-.73-.58,1.92,1.92,0,0,0-.87-.21h-3.85Z" style="fill:#263238"></path><path d="M132.08,245.89v2.92H122V234.42h9.94v2.92h-6.61v2.79H131v2.7h-5.67v3.06Z" style="fill:#263238"></path><path d="M134.11,248.81V234.42h6.48a4.25,4.25,0,0,1,1.88.42A5.17,5.17,0,0,1,144,236a5.48,5.48,0,0,1,1,1.56,4.57,4.57,0,0,1,.35,1.76,5,5,0,0,1-.16,1.29,5.1,5.1,0,0,1-.46,1.16,4.57,4.57,0,0,1-.74,1,4.27,4.27,0,0,1-1,.74l3.16,5.35h-3.75l-2.75-4.64h-2.17v4.64Zm3.32-7.54h3a1.25,1.25,0,0,0,1-.56,2.25,2.25,0,0,0,.43-1.43,2,2,0,0,0-.49-1.42,1.4,1.4,0,0,0-1-.52h-2.94Z" style="fill:#263238"></path><path d="M147.69,248.81V234.42h6.48a4.25,4.25,0,0,1,1.88.42,5.17,5.17,0,0,1,1.49,1.12,5.27,5.27,0,0,1,1,1.56,4.58,4.58,0,0,1,.36,1.76,5,5,0,0,1-.17,1.29,5.1,5.1,0,0,1-.46,1.16,4.57,4.57,0,0,1-.74,1,4.27,4.27,0,0,1-1,.74l3.17,5.35h-3.75l-2.76-4.64H151v4.64Zm3.32-7.54h3a1.25,1.25,0,0,0,1-.56,2.25,2.25,0,0,0,.43-1.43,2,2,0,0,0-.49-1.42,1.4,1.4,0,0,0-1.05-.52H151Z" style="fill:#263238"></path><path d="M167.57,248.93a6.68,6.68,0,0,1-2.92-.63,7.21,7.21,0,0,1-2.25-1.65,7.61,7.61,0,0,1-1.45-2.34,7.46,7.46,0,0,1-.51-2.72,7.13,7.13,0,0,1,.53-2.73,7.31,7.31,0,0,1,3.78-3.93,7,7,0,0,1,2.88-.59,6.82,6.82,0,0,1,2.92.62,7.11,7.11,0,0,1,2.25,1.67,7.55,7.55,0,0,1,1.44,2.35,7.36,7.36,0,0,1,.51,2.67,7.16,7.16,0,0,1-.54,2.74,7.5,7.5,0,0,1-1.49,2.32,7.26,7.26,0,0,1-2.27,1.61A6.73,6.73,0,0,1,167.57,248.93Zm-3.75-7.3a5.53,5.53,0,0,0,.24,1.62,4.53,4.53,0,0,0,.72,1.38,3.66,3.66,0,0,0,1.19,1,3.51,3.51,0,0,0,1.62.36,3.4,3.4,0,0,0,2.84-1.39,4.49,4.49,0,0,0,.7-1.4,5.71,5.71,0,0,0,.23-1.59,5.46,5.46,0,0,0-.24-1.61,4.15,4.15,0,0,0-.73-1.38,3.68,3.68,0,0,0-1.19-.95,3.87,3.87,0,0,0-3.26,0,3.75,3.75,0,0,0-1.18,1,4.46,4.46,0,0,0-.71,1.39A5.71,5.71,0,0,0,163.82,241.63Z" style="fill:#263238"></path><path d="M176.67,248.81V234.42h6.49a4.2,4.2,0,0,1,1.87.42,5,5,0,0,1,1.49,1.12,5.3,5.3,0,0,1,1,1.56,4.76,4.76,0,0,1,.35,1.76,5,5,0,0,1-.16,1.29,5.13,5.13,0,0,1-.47,1.16,4.27,4.27,0,0,1-.74,1,4.43,4.43,0,0,1-1,.74l3.16,5.35h-3.75l-2.76-4.64H180v4.64Zm3.33-7.54h3a1.25,1.25,0,0,0,1-.56,2.32,2.32,0,0,0,.43-1.43,2.06,2.06,0,0,0-.49-1.42,1.44,1.44,0,0,0-1.05-.52H180Z" style="fill:#263238"></path><path d="M82.72,113.28v22.21a15.05,15.05,0,0,1,6.54-5.12,13.72,13.72,0,0,1,5.22-.91q10.26,0,15.15,7.18,4.22,6.2,4.22,17.51v22.29q0,11.48-7.27,18.83a23.45,23.45,0,0,1-17.5,7.1,22,22,0,0,1-17-7.43,24.71,24.71,0,0,1-6.52-17.34v-2.48L80.49,174l.33,3.55q.59,6.19,5,8.26a6.21,6.21,0,0,0,2.81.66q9.57,0,9.57-10V151.09a9.63,9.63,0,0,0-3.32-7.51,6.35,6.35,0,0,0-4.4-1.4,6.72,6.72,0,0,0-6.14,3.22,11.45,11.45,0,0,0-1.66,5.94v2.81H67.12V97.59h45.66v15.69Z" style="fill:#6418C2"></path><path d="M176.43,177.6a24.76,24.76,0,0,1-42.23,17.46A23.78,23.78,0,0,1,127,177.6V121.12a24.75,24.75,0,0,1,42.27-17.5,24,24,0,0,1,7.18,17.5Zm-16.18-56.81a9,9,0,0,0-9-9,8.55,8.55,0,0,0-6.32,2.64,8.77,8.77,0,0,0-2.6,6.36v56.56a8.75,8.75,0,0,0,2.6,6.36,8.55,8.55,0,0,0,6.32,2.64,9,9,0,0,0,9-9Z" style="fill:#6418C2"></path><path d="M239.35,177.6a24.73,24.73,0,0,1-49.46,0V121.12a24.76,24.76,0,0,1,42.28-17.5,24,24,0,0,1,7.18,17.5Zm-16.19-56.81a9,9,0,0,0-9-9,8.53,8.53,0,0,0-6.32,2.64,8.73,8.73,0,0,0-2.6,6.36v56.56a8.71,8.71,0,0,0,2.6,6.36,8.53,8.53,0,0,0,6.32,2.64,9,9,0,0,0,9-9Z" style="fill:#6418C2"></path></g><g id="freepik--wall-plug--inject-52"><rect x="43.46" y="353.74" width="26.56" height="26.56" style="fill:#37474f"></rect><circle cx="56.74" cy="367.01" r="8.87" style="fill:#455a64"></circle><rect x="53.12" y="363.43" width="2" height="7.32" style="fill:#263238"></rect><rect x="58.68" y="363.43" width="2" height="7.32" style="fill:#263238"></rect></g><g id="freepik--Floor--inject-52"><polygon points="36.85 421.59 90.14 421.35 143.43 421.26 250 421.09 356.57 421.26 409.86 421.35 463.15 421.59 409.86 421.84 356.57 421.93 250 422.09 143.43 421.92 90.14 421.83 36.85 421.59" style="fill:#263238"></polygon></g><g id="freepik--Lines--inject-52"><path d="M74.9,395.89a47.15,47.15,0,0,1,11.86.81,47.23,47.23,0,0,1-11.86-.81Z" style="fill:#263238"></path><path d="M103.69,402.22a42.64,42.64,0,0,1,5.47,2.34,41.43,41.43,0,0,1,5.13,3,47.1,47.1,0,0,1-10.6-5.35Z" style="fill:#263238"></path><path d="M81.25,416a46.89,46.89,0,0,1,7.14-9.5,41.37,41.37,0,0,1-3.27,5A41.53,41.53,0,0,1,81.25,416Z" style="fill:#263238"></path><path d="M70,384.07c1.55.49,3.06,1.05,4.56,1.63s3,1.2,4.48,1.83,3,1.28,4.41,2,2.92,1.39,4.34,2.17c-1.55-.5-3.06-1.06-4.56-1.64s-3-1.2-4.48-1.83-3-1.28-4.41-2S71.43,384.84,70,384.07Z" style="fill:#263238"></path><path d="M105.13,392.93a26.48,26.48,0,0,1,4.34-1.72,25.63,25.63,0,0,1,4.55-1,28.44,28.44,0,0,1-8.89,2.73Z" style="fill:#263238"></path><path d="M90.75,387.87c-.82-1.3-1.56-2.63-2.29-4s-1.43-2.7-2.12-4.07-1.35-2.74-2-4.14-1.25-2.79-1.79-4.23c.82,1.3,1.57,2.64,2.3,4s1.43,2.7,2.12,4.06,1.34,2.74,2,4.14S90.21,386.43,90.75,387.87Z" style="fill:#263238"></path><path d="M111,419.5c-.89-1-1.72-2.09-2.53-3.16s-1.59-2.18-2.37-3.28-1.51-2.23-2.22-3.38-1.42-2.3-2.06-3.49c.89,1,1.72,2.09,2.53,3.16s1.6,2.18,2.37,3.28,1.51,2.23,2.22,3.38S110.36,418.3,111,419.5Z" style="fill:#263238"></path></g><g id="freepik--Device--inject-52"><polygon points="379.94 168.86 297.28 168.86 290.88 112.72 373.54 112.72 379.94 168.86" style="fill:#a6a6a6"></polygon><polygon points="375.44 165.1 300.93 165.1 295.39 116.49 369.9 116.49 375.44 165.1" style="fill:#fff"></polygon><polygon points="329.42 142.06 328.23 143.48 316.51 133.36 317.7 131.94 329.42 142.06" style="fill:#6418C2"></polygon><polygon points="326.4 131.94 328.04 133.36 319.53 143.48 317.89 142.06 326.4 131.94" style="fill:#6418C2"></polygon><polygon points="354.48 142.06 353.29 143.48 341.57 133.36 342.76 131.94 354.48 142.06" style="fill:#6418C2"></polygon><polygon points="351.46 131.94 353.1 133.36 344.59 143.48 342.95 142.06 351.46 131.94" style="fill:#6418C2"></polygon><polygon points="315.01 151.79 314.69 149.79 360.12 149.79 360.44 151.79 315.01 151.79" style="fill:#6418C2"></polygon><rect x="297.86" y="165.1" width="106.34" height="3.77" style="fill:#a6a6a6"></rect><rect x="320.96" y="165.1" width="92.22" height="3.77" style="fill:#c7c7c7"></rect><polygon points="370.17 118.85 369.9 116.49 295.39 116.49 295.66 118.85 370.17 118.85" style="fill:#263238"></polygon><path d="M301.66,117.67a.63.63,0,0,0,.59.58.48.48,0,0,0,.46-.58.63.63,0,0,0-.59-.59A.49.49,0,0,0,301.66,117.67Z" style="fill:#c7c7c7"></path><path d="M299.5,117.67a.64.64,0,0,0,.6.58.49.49,0,0,0,.46-.58.64.64,0,0,0-.59-.59A.5.5,0,0,0,299.5,117.67Z" style="fill:#fff"></path><path d="M297.35,117.67a.63.63,0,0,0,.59.58.48.48,0,0,0,.46-.58.63.63,0,0,0-.59-.59A.49.49,0,0,0,297.35,117.67Z" style="fill:#6418C2"></path></g></svg>